<?xml version="1.0" encoding="UTF-8" standalone="no"?>
<!-- Created with Inkscape (http://www.inkscape.org/) -->

<svg
   width="30.667"
   height="32"
   viewBox="0 0 30.667 32"
   version="1.1"
   id="svg1037"
   inkscape:version="1.2.2 (b0a8486541, 2022-12-01)"
   sodipodi:docname="icon.svg"
   inkscape:export-filename="icon.png"
   inkscape:export-xdpi="96"
   inkscape:export-ydpi="96"
   xmlns:inkscape="http://www.inkscape.org/namespaces/inkscape"
   xmlns:sodipodi="http://sodipodi.sourceforge.net/DTD/sodipodi-0.dtd"
   xmlns="http://www.w3.org/2000/svg"
   xmlns:svg="http://www.w3.org/2000/svg">
  <sodipodi:namedview
     id="namedview1039"
     pagecolor="#ffffff"
     bordercolor="#000000"
     borderopacity="0.25"
     inkscape:showpageshadow="2"
     inkscape:pageopacity="0.0"
     inkscape:pagecheckerboard="0"
     inkscape:deskcolor="#d1d1d1"
     inkscape:document-units="px"
     showgrid="false"
     inkscape:zoom="16"
     inkscape:cx="-2.59375"
     inkscape:cy="23.75"
     inkscape:window-width="1920"
     inkscape:window-height="1043"
     inkscape:window-x="1920"
     inkscape:window-y="0"
     inkscape:window-maximized="1"
     inkscape:current-layer="layer1" />
  <defs
     id="defs1034" />
  <g
     inkscape:label="Warstwa 1"
     inkscape:groupmode="layer"
     id="layer1">
    <rect
       style="fill:#ffffff;fill-opacity:1;stroke:#000000;stroke-width:0.969059;stroke-dasharray:none"
       id="rect4932"
       width="29.697941"
       height="31.030941"
       x="0.4845295"
       y="0.4845295" />
    <g
       id="g912"
       transform="translate(0.10930803,-0.24532376)">
      <g
         id="g877">
        <rect
           style="fill:#00ffff;fill-opacity:1;stroke:#000000;stroke-width:0.5;stroke-dasharray:none;stroke-opacity:1"
           id="rect928"
           width="10.5"
           height="16.5"
           x="2.4418426"
           y="-18.816269"
           transform="rotate(90)" />
        <circle
           style="fill:#ff0000;fill-opacity:1;stroke:#ff0000;stroke-width:0.5;stroke-dasharray:none;stroke-opacity:1"
           id="path982"
           cx="7.6918426"
           cy="-10.566268"
           r="0.375"
           transform="rotate(90)" />
      </g>
      <g
         id="g901">
        <rect
           style="fill:#ffff00;fill-opacity:1;stroke:#000000;stroke-width:0.5;stroke-dasharray:none;stroke-opacity:1"
           id="rect887"
           width="10.5"
           height="16.5"
           x="-25.543179"
           y="-21.4498"
           transform="scale(-1)" />
        <circle
           style="fill:#ff0000;fill-opacity:1;stroke:#ff0000;stroke-width:0.5;stroke-dasharray:none;stroke-opacity:1"
           id="circle889"
           cx="-20.293179"
           cy="-13.199799"
           r="0.375"
           transform="scale(-1)" />
      </g>
      <g
         id="g895"
         transform="translate(0.35885281,0.44165584)">
        <rect
           style="fill:#008000;fill-opacity:1;stroke:#000000;stroke-width:0.5;stroke-dasharray:none;stroke-opacity:1"
           id="rect879"
           width="10.5"
           height="16.5"
           x="19.107149"
           y="-27.773262"
           transform="rotate(90)" />
        <circle
           style="fill:#ff0000;fill-opacity:1;stroke:#ff0000;stroke-width:0.5;stroke-dasharray:none;stroke-opacity:1"
           id="circle881"
           cx="24.357149"
           cy="-19.523262"
           r="0.375"
           transform="rotate(90)" />
      </g>
    </g>
    <g
       id="g1853"
       transform="matrix(1.3059135,0,0,1.3123411,-40.479747,-304.50063)">
      <path
         d="m 38.360563,251.7874 v 1.72133 c 0,0.1905 -0.08467,0.33867 -0.253999,0.4445 -0.324554,0.21167 -0.680858,0.37747 -1.068913,0.49741 -0.388054,0.11289 -0.786692,0.16933 -1.195913,0.16933 -0.705553,0 -1.354662,-0.16933 -1.947327,-0.50799 -0.585609,-0.33867 -1.047747,-0.79728 -1.386412,-1.37583 C 32.169333,252.15054 32,251.50848 32,250.80999 c 0,-0.6985 0.169333,-1.33703 0.507999,-1.91558 0.338665,-0.58561 0.800803,-1.04774 1.386412,-1.38641 0.592665,-0.33867 1.241774,-0.508 1.947327,-0.508 0.352777,0 0.691442,0.0388 1.015997,0.11642 0.33161,0.0776 0.627942,0.19402 0.888997,0.34924 0.08467,0.0494 0.148167,0.10937 0.1905,0.17992 0.04233,0.0706 0.0635,0.14816 0.0635,0.23283 0,0.14111 -0.04939,0.26459 -0.148166,0.37042 -0.09172,0.0988 -0.20461,0.14816 -0.338665,0.14816 -0.105833,0 -0.197555,-0.0247 -0.275166,-0.0741 -0.45861,-0.21167 -0.924275,-0.3175 -1.396996,-0.3175 -0.507998,0 -0.973663,0.12347 -1.396995,0.37042 -0.416277,0.24694 -0.747887,0.5856 -0.994831,1.01599 -0.239888,0.43039 -0.359832,0.90312 -0.359832,1.41817 0,0.51505 0.119944,0.98777 0.359832,1.41816 0.246944,0.42333 0.578554,0.762 0.994831,1.016 0.423332,0.24694 0.888997,0.37041 1.396995,0.37041 0.239888,0 0.490359,-0.0282 0.751414,-0.0847 0.268111,-0.0565 0.497416,-0.13055 0.687915,-0.22224 v -1.68275 z"
         style="font-style:normal;font-variant:normal;font-weight:normal;font-stretch:normal;font-size:10.5833px;line-height:1.25;font-family:'Quicksand Medium';-inkscape-font-specification:'Quicksand Medium, Normal';font-variant-ligatures:normal;font-variant-caps:normal;font-variant-numeric:normal;font-variant-east-asian:normal;letter-spacing:0px;fill:#93b023;fill-opacity:1;stroke:none;stroke-width:0.264583"
         id="path1822"
         sodipodi:nodetypes="csccsccsccsccsscscsccsccscccc" />
      <g
         id="g1836"
         transform="matrix(-1,0,0,1,65.921046,-2.02623)">
        <g
           id="g1834">
          <path
             style="fill:#ee7913;fill-opacity:1;stroke:none;stroke-width:0.621934px;stroke-linecap:butt;stroke-linejoin:miter;stroke-opacity:1"
             d="m 31.016122,251.02235 -1.519545,3.01269 -1.438679,-1.38932 z"
             id="path1830"
             sodipodi:nodetypes="cccc" />
          <path
             style="fill:#589632;fill-opacity:1;stroke:none;stroke-width:0.621934px;stroke-linecap:butt;stroke-linejoin:miter;stroke-opacity:1"
             d="m 26.538758,255.6588 2.957819,-1.62376 -1.438679,-1.38932 z"
             id="path1832"
             sodipodi:nodetypes="cccc" />
        </g>
      </g>
    </g>
  </g>
</svg>
