<?xml version="1.0" encoding="UTF-8" standalone="no"?>
<svg
   xmlns:dc="http://purl.org/dc/elements/1.1/"
   xmlns:cc="http://creativecommons.org/ns#"
   xmlns:rdf="http://www.w3.org/1999/02/22-rdf-syntax-ns#"
   xmlns:svg="http://www.w3.org/2000/svg"
   xmlns="http://www.w3.org/2000/svg"
   xmlns:sodipodi="http://sodipodi.sourceforge.net/DTD/sodipodi-0.dtd"
   xmlns:inkscape="http://www.inkscape.org/namespaces/inkscape"
   width="75"
   height="28"
   viewBox="0 0 75 28"
   version="1.1"
   id="svg1047"
   inkscape:version="1.0.2 (e86c870879, 2021-01-15)"
   sodipodi:docname="nazwa.svg">
  <defs
     id="defs1041" />
  <sodipodi:namedview
     id="base"
     pagecolor="#ffffff"
     bordercolor="#666666"
     borderopacity="1.0"
     inkscape:pageopacity="0"
     inkscape:pageshadow="2"
     inkscape:zoom="3.959798"
     inkscape:cx="110.97643"
     inkscape:cy="71.782913"
     inkscape:document-units="px"
     inkscape:current-layer="layer1"
     inkscape:document-rotation="0"
     showgrid="false"
     inkscape:window-width="1920"
     inkscape:window-height="1016"
     inkscape:window-x="0"
     inkscape:window-y="27"
     inkscape:window-maximized="1"
     units="px"
     showborder="true" />
  <metadata
     id="metadata1044">
    <rdf:RDF>
      <cc:Work
         rdf:about="">
        <dc:format>image/svg+xml</dc:format>
        <dc:type
           rdf:resource="http://purl.org/dc/dcmitype/StillImage" />
        <dc:title></dc:title>
      </cc:Work>
    </rdf:RDF>
  </metadata>
  <g
     inkscape:label="Warstwa 1"
     inkscape:groupmode="layer"
     id="layer1">
    <g
       id="g1876"
       transform="matrix(3.3953752,0,0,3.4120869,-104.25663,-841.78546)">
      <path
         d="m 40.60422,254.00614 q 0,0.21167 -0.148166,0.35984 -0.137583,0.14816 -0.359833,0.14816 -0.211666,0 -0.359832,-0.14816 -0.137583,-0.14817 -0.137583,-0.35984 v -4.58257 q 0,-0.21166 0.137583,-0.35983 0.148166,-0.14816 0.359832,-0.14816 0.22225,0 0.359833,0.14816 0.148166,0.14817 0.148166,0.35983 z m -0.507999,-5.78906 q -0.306915,0 -0.444498,-0.10583 -0.127,-0.11642 -0.127,-0.35984 v -0.16933 q 0,-0.254 0.137583,-0.35983 0.148166,-0.10583 0.444499,-0.10583 0.296332,0 0.423332,0.11641 0.137583,0.10583 0.137583,0.34925 v 0.16933 q 0,0.254 -0.137583,0.35984 -0.137583,0.10583 -0.433916,0.10583 z"
         style="font-style:normal;font-variant:normal;font-weight:normal;font-stretch:normal;font-size:10.5833px;line-height:1.25;font-family:'Quicksand Medium';-inkscape-font-specification:'Quicksand Medium, Normal';font-variant-ligatures:normal;font-variant-caps:normal;font-variant-numeric:normal;font-variant-east-asian:normal;letter-spacing:0px;fill:#93b023;fill-opacity:1;stroke:none;stroke-width:0.264583"
         id="path1824" />
      <path
         d="m 41.736625,253.64631 q -0.09525,-0.14816 -0.09525,-0.28575 0,-0.21166 0.222249,-0.35983 0.105833,-0.0741 0.243416,-0.0741 0.190499,0 0.349249,0.15875 0.317499,0.35983 0.677331,0.53974 0.370415,0.17992 0.878414,0.17992 0.402165,-0.0106 0.709081,-0.17992 0.306916,-0.17991 0.306916,-0.57149 0,-0.35984 -0.317499,-0.55034 -0.306916,-0.19049 -0.910164,-0.34924 -0.592665,-0.15875 -0.984247,-0.32809 -0.391582,-0.17991 -0.666748,-0.50799 -0.264582,-0.33867 -0.264582,-0.87842 0,-0.47625 0.264582,-0.83608 0.275166,-0.35983 0.719664,-0.56091 0.455082,-0.20109 0.984247,-0.20109 0.507999,0 1.005414,0.1905 0.507998,0.1905 0.825497,0.58208 0.127,0.14817 0.127,0.30692 0,0.16933 -0.169333,0.32808 -0.105833,0.0952 -0.264583,0.0952 -0.190499,0 -0.306915,-0.127 -0.22225,-0.254 -0.550332,-0.39158 -0.317499,-0.13758 -0.709081,-0.13758 -0.402165,0 -0.687914,0.16933 -0.275166,0.15875 -0.275166,0.55033 0.01058,0.37042 0.317499,0.55033 0.317499,0.17992 0.96308,0.34925 0.560915,0.14817 0.93133,0.3175 0.370416,0.16933 0.624415,0.508 0.253999,0.32808 0.253999,0.86783 0,0.49742 -0.285749,0.86783 -0.285749,0.35983 -0.751414,0.56092 -0.455082,0.19049 -0.973664,0.19049 -0.666748,0 -1.238246,-0.23283 -0.560915,-0.23283 -0.952497,-0.74083 z"
         style="font-style:normal;font-variant:normal;font-weight:normal;font-stretch:normal;font-size:10.5833px;line-height:1.25;font-family:'Quicksand Medium';-inkscape-font-specification:'Quicksand Medium, Normal';font-variant-ligatures:normal;font-variant-caps:normal;font-variant-numeric:normal;font-variant-east-asian:normal;letter-spacing:0px;fill:#93b023;fill-opacity:1;stroke:none;stroke-width:0.264583"
         id="path1826" />
      <path
         d="m 52.023585,251.46615 q 0.201083,0 0.338666,0.13758 0.137582,0.127 0.137582,0.32809 0,0.20108 -0.137582,0.32808 -0.137583,0.127 -0.338666,0.127 H 51.46267 v 1.61924 q 0,0.21167 -0.148166,0.35984 -0.148166,0.14816 -0.359832,0.14816 -0.211666,0 -0.359832,-0.14816 -0.137583,-0.14817 -0.137583,-0.35984 v -1.61924 h -2.899824 q -0.1905,0 -0.349249,-0.14817 -0.148167,-0.14816 -0.148167,-0.34925 0,-0.1905 0.116417,-0.33866 l 3.376072,-4.24391 q 0.07408,-0.0952 0.179916,-0.14816 0.116417,-0.0529 0.232833,-0.0529 0.211666,0 0.349249,0.14817 0.148166,0.14816 0.148166,0.35983 v 3.85232 z m -3.630072,0 h 2.063744 v -2.64582 z"
         style="font-style:normal;font-variant:normal;font-weight:normal;font-stretch:normal;font-size:10.5833px;line-height:1.25;font-family:'Quicksand Medium';-inkscape-font-specification:'Quicksand Medium, Normal';font-variant-ligatures:normal;font-variant-caps:normal;font-variant-numeric:normal;font-variant-east-asian:normal;letter-spacing:0px;fill:#589632;fill-opacity:1;stroke:none;stroke-width:0.264583"
         id="path1828" />
      <g
         id="g1853"
         transform="translate(-1)">
        <path
           d="m 38.360563,251.7874 v 1.72133 c 0,0.1905 -0.08467,0.33867 -0.253999,0.4445 -0.324554,0.21167 -0.680858,0.37747 -1.068913,0.49741 -0.388054,0.11289 -0.786692,0.16933 -1.195913,0.16933 -0.705553,0 -1.354662,-0.16933 -1.947327,-0.50799 -0.585609,-0.33867 -1.047747,-0.79728 -1.386412,-1.37583 C 32.169333,252.15054 32,251.50848 32,250.80999 c 0,-0.6985 0.169333,-1.33703 0.507999,-1.91558 0.338665,-0.58561 0.800803,-1.04774 1.386412,-1.38641 0.592665,-0.33867 1.241774,-0.508 1.947327,-0.508 0.352777,0 0.691442,0.0388 1.015997,0.11642 0.33161,0.0776 0.627942,0.19402 0.888997,0.34924 0.08467,0.0494 0.148167,0.10937 0.1905,0.17992 0.04233,0.0706 0.0635,0.14816 0.0635,0.23283 0,0.14111 -0.04939,0.26459 -0.148166,0.37042 -0.09172,0.0988 -0.20461,0.14816 -0.338665,0.14816 -0.105833,0 -0.197555,-0.0247 -0.275166,-0.0741 -0.45861,-0.21167 -0.924275,-0.3175 -1.396996,-0.3175 -0.507998,0 -0.973663,0.12347 -1.396995,0.37042 -0.416277,0.24694 -0.747887,0.5856 -0.994831,1.01599 -0.239888,0.43039 -0.359832,0.90312 -0.359832,1.41817 0,0.51505 0.119944,0.98777 0.359832,1.41816 0.246944,0.42333 0.578554,0.762 0.994831,1.016 0.423332,0.24694 0.888997,0.37041 1.396995,0.37041 0.239888,0 0.490359,-0.0282 0.751414,-0.0847 0.268111,-0.0565 0.497416,-0.13055 0.687915,-0.22224 v -1.68275 z"
           style="font-style:normal;font-variant:normal;font-weight:normal;font-stretch:normal;font-size:10.5833px;line-height:1.25;font-family:'Quicksand Medium';-inkscape-font-specification:'Quicksand Medium, Normal';font-variant-ligatures:normal;font-variant-caps:normal;font-variant-numeric:normal;font-variant-east-asian:normal;letter-spacing:0px;fill:#93b023;fill-opacity:1;stroke:none;stroke-width:0.264583"
           id="path1822"
           sodipodi:nodetypes="csccsccsccsccsscscsccsccscccc" />
        <g
           id="g1836"
           transform="matrix(-1,0,0,1,65.921046,-2.02623)">
          <g
             id="g1834">
            <path
               style="fill:#ee7913;fill-opacity:1;stroke:none;stroke-width:0.621934px;stroke-linecap:butt;stroke-linejoin:miter;stroke-opacity:1"
               d="m 31.016122,251.02235 -1.519545,3.01269 -1.438679,-1.38932 z"
               id="path1830"
               sodipodi:nodetypes="cccc" />
            <path
               style="fill:#589632;fill-opacity:1;stroke:none;stroke-width:0.621934px;stroke-linecap:butt;stroke-linejoin:miter;stroke-opacity:1"
               d="m 26.538758,255.6588 2.957819,-1.62376 -1.438679,-1.38932 z"
               id="path1832"
               sodipodi:nodetypes="cccc" />
          </g>
        </g>
      </g>
    </g>
  </g>
</svg>
